# xmcd CD database file
#
# Track frame offsets:
#	150
#	13110
#	25794
#	37190
#	50071
#	59472
#	70479
#	85853
#	95015
#	111916
#	123491
#	135870
#	147961
#	158819
#	169205
#	180382
#	197919
#	208044
#	221835
#	232880
#
# Disc length: 3272 seconds
#
# Revision: 8
# Processed by: cddbd v1.5.2PL0 Copyright (c) Steve Scherf et al.
# Submitted via: CDex 1.95
#
DISCID=280cc614
DTITLE=Various Artist - Great Country Hits Vol9 CD1
DYEAR=1999
DGENRE=Country
TTITLE0=Carl Perkins - Let The Jukebox Keep Playin'
TTITLE1=Bob Wills - If He's Movin' In, I'm Movin' Out
TTITLE2=Barbara Mandrell - We've Got Everything But Love
TTITLE3=Danny Davis and Nashville Brass - From Dixie With Love
TTITLE4=Ferlin Husly - Truck Drivin' Son Of A Gun
TTITLE5=Dottie West - A Lesson In Leavin'
TTITLE6=Don Williams - Till The River All Runs Dry
TTITLE7=Conway Twitty - Don't Go Too Far
TTITLE8=Carl Perkins - Sweeter Than Candy
TTITLE9=Eddie Raven - Dealin' With The Devil
TTITLE10=Gail Davis - Settin' Me Up
TTITLE11=Freddy Fender - Loving Cajun Style
TTITLE12=Frankie Laine - Hummingbird
TTITLE13=Stonewall Jackson - Lovin' The Fool Out Of Me
TTITLE14=George Jones - Tarnished Angel
TTITLE15=Nitty Gritty Dirt Band - Partners, Brothers, Friends
TTITLE16=Patsy Cline - Pick Me Up On Your Way Down
TTITLE17=Porter Wagoner - Keep On Loving You
TTITLE18=Razzy Bailey - If I Could Write A Song
TTITLE19=Rex Allen - Can You Hear Those Pioneers
EXTD=YEAR: 1999
EXTT0=
EXTT1=
EXTT2=
EXTT3=
EXTT4=
EXTT5=
EXTT6=
EXTT7=
EXTT8=
EXTT9=
EXTT10=
EXTT11=
EXTT12=
EXTT13=
EXTT14=
EXTT15=
EXTT16=
EXTT17=
EXTT18=
EXTT19=
PLAYORDER=
